<?xml version="1.0" encoding="UTF-8" standalone="no"?>
<!-- Created with Inkscape (http://www.inkscape.org/) -->

<svg
   width="500"
   height="500"
   viewBox="0 0 132.29166 132.29167"
   version="1.1"
   id="svg5"
   inkscape:version="1.3 (0e150ed, 2023-07-21)"
   sodipodi:docname="systemtray.svg"
   inkscape:export-filename="icon.png"
   inkscape:export-xdpi="59.52"
   inkscape:export-ydpi="59.52"
   xmlns:inkscape="http://www.inkscape.org/namespaces/inkscape"
   xmlns:sodipodi="http://sodipodi.sourceforge.net/DTD/sodipodi-0.dtd"
   xmlns="http://www.w3.org/2000/svg"
   xmlns:svg="http://www.w3.org/2000/svg">
  <sodipodi:namedview
     id="namedview7"
     pagecolor="#ffffff"
     bordercolor="#000000"
     borderopacity="0.25"
     inkscape:showpageshadow="2"
     inkscape:pageopacity="0.0"
     inkscape:pagecheckerboard="0"
     inkscape:deskcolor="#d1d1d1"
     inkscape:document-units="mm"
     showgrid="false"
     showguides="true"
     inkscape:zoom="1.2922416"
     inkscape:cx="234.08935"
     inkscape:cy="222.86854"
     inkscape:window-width="1472"
     inkscape:window-height="997"
     inkscape:window-x="210"
     inkscape:window-y="25"
     inkscape:window-maximized="0"
     inkscape:current-layer="layer1">
    <sodipodi:guide
       position="13.229166,105.10764"
       orientation="-1,0"
       id="guide132"
       inkscape:locked="false"
       inkscape:label=""
       inkscape:color="rgb(0,134,229)" />
    <sodipodi:guide
       position="118.39941,119.0625"
       orientation="0,1"
       id="guide184"
       inkscape:locked="false"
       inkscape:label=""
       inkscape:color="rgb(0,134,229)" />
    <sodipodi:guide
       position="-29.446486,13.229166"
       orientation="0,1"
       id="guide186"
       inkscape:locked="false"
       inkscape:label=""
       inkscape:color="rgb(0,134,229)" />
    <sodipodi:guide
       position="119.0625,37.408541"
       orientation="-1,0"
       id="guide188"
       inkscape:locked="false"
       inkscape:label=""
       inkscape:color="rgb(0,134,229)" />
  </sodipodi:namedview>
  <defs
     id="defs2" />
  <g
     inkscape:label="Layer 1"
     inkscape:groupmode="layer"
     id="layer1">
    <path
       id="rect282"
       style="fill:#000000;fill-opacity:1;stroke:#00819e;stroke-width:0;stroke-linecap:butt;stroke-dasharray:none;stroke-opacity:0.698039"
       d="M 41.281718 13.26689 C 25.76139 13.26689 13.26689 25.76139 13.26689 41.281718 L 13.26689 91.009949 C 13.26689 106.53028 25.76139 119.02478 41.281718 119.02478 L 91.009949 119.02478 C 106.53028 119.02478 119.02478 106.53028 119.02478 91.009949 L 119.02478 41.281718 C 119.02478 25.76139 106.53028 13.26689 91.009949 13.26689 L 41.281718 13.26689 z M 30.648258 49.944238 L 43.821615 49.944238 L 48.905542 69.660347 L 53.966732 49.944238 L 67.096163 49.944238 L 67.096163 82.347428 L 58.917851 82.347428 L 58.917851 57.636275 L 52.574569 82.347428 L 45.169853 82.347428 L 38.848275 57.636275 L 38.848275 82.347428 L 30.648258 82.347428 L 30.648258 49.944238 z M 71.20754 49.944238 L 101.64341 49.944238 L 101.64341 57.9453 L 91.432145 57.9453 L 91.432145 82.347428 L 81.41932 82.347428 L 81.41932 57.9453 L 71.20754 57.9453 L 71.20754 49.944238 z " />
  </g>
</svg>
